G04 ================== begin FILE IDENTIFICATION RECORD ==================*
G04 Layout Name:  C:/Users/anana/Desktop/pt inch/P1_CONECTORI.brd*
G04 Film Name:    BO*
G04 File Format:  Gerber RS274X*
G04 File Origin:  Cadence Allegro 17.2-S025*
G04 Origin Date:  Wed Dec 13 20:25:59 2023*
G04 *
G04 Layer:  BOARD GEOMETRY/DIMENSION*
G04 Layer:  BOARD GEOMETRY/DESIGN_OUTLINE*
G04 *
G04 Offset:    (0.0000 0.0000)*
G04 Mirror:    No*
G04 Mode:      Positive*
G04 Rotation:  0*
G04 FullContactRelief:  No*
G04 UndefLineWidth:     0.1000*
G04 ================== end FILE IDENTIFICATION RECORD ====================*
%FSLAX25Y25*MOIN*%
%IR0*IPPOS*OFA0.00000B0.00000*MIA0B0*SFA1.00000B1.00000*%
%ADD10C,.003937*%
G75*
%LPD*%
G75*
G54D10*
G01X0Y147638D02*
Y-42992D01*
G01X61547Y-33150D02*
X0D01*
G01X15748Y-30689D02*
X0Y-33150D01*
X15748Y-35610D01*
Y-30689D01*
G01X0Y0D02*
Y157480D01*
X157480D01*
Y0D01*
X0D01*
G01X77431Y-39400D02*
Y-26900D01*
X71696Y-35858D01*
X79447D01*
G01X87972Y-26900D02*
X86731Y-27316D01*
X85802Y-28358D01*
X85181Y-29608D01*
X84717Y-31275D01*
X84562Y-33150D01*
X84717Y-35025D01*
X85181Y-36691D01*
X85802Y-37942D01*
X86731Y-38983D01*
X87972Y-39400D01*
X89211Y-38983D01*
X90142Y-37942D01*
X90762Y-36691D01*
X91227Y-35025D01*
X91381Y-33150D01*
X91227Y-31275D01*
X90762Y-29608D01*
X90142Y-28358D01*
X89211Y-27316D01*
X87972Y-26900D01*
G01X101996Y-33150D02*
X157480D01*
G01X141732Y-35610D02*
X157480Y-33150D01*
X141732Y-30689D01*
Y-35610D01*
G01X157480Y147638D02*
Y-42992D01*
G01X167323Y0D02*
X210000D01*
G01X167323Y157480D02*
X210000D01*
G01X200157Y77722D02*
Y0D01*
G01X197697Y15748D02*
X200157Y0D01*
X202618Y15748D01*
X197697D01*
G01X195817Y87096D02*
Y99596D01*
X190082Y90638D01*
X197833D01*
G01X206357Y99596D02*
X205117Y99180D01*
X204187Y98138D01*
X203567Y96888D01*
X203102Y95221D01*
X202948Y93346D01*
X203102Y91471D01*
X203567Y89805D01*
X204187Y88554D01*
X205117Y87513D01*
X206357Y87096D01*
X207597Y87513D01*
X208528Y88554D01*
X209148Y89805D01*
X209613Y91471D01*
X209767Y93346D01*
X209613Y95221D01*
X209148Y96888D01*
X208528Y98138D01*
X207597Y99180D01*
X206357Y99596D01*
G01X200157Y108971D02*
Y157480D01*
G01X202618Y141732D02*
X200157Y157480D01*
X197697Y141732D01*
X202618D01*
M02*
