G04 ================== begin FILE IDENTIFICATION RECORD ==================*
G04 Layout Name:  C:/Users/anana/Desktop/pt inch/P1_CONECTORI.brd*
G04 Film Name:    FAB*
G04 File Format:  Gerber RS274X*
G04 File Origin:  Cadence Allegro 17.2-S025*
G04 Origin Date:  Wed Dec 13 20:25:59 2023*
G04 *
G04 Layer:  MANUFACTURING/NCDRILL_LEGEND*
G04 Layer:  MANUFACTURING/NCDRILL_FIGURE*
G04 Layer:  MANUFACTURING/XSECTION_CHART*
G04 Layer:  MANUFACTURING/NCLEGEND-1-2*
G04 Layer:  DRAWING FORMAT/OUTLINE*
G04 Layer:  BOARD GEOMETRY/DIMENSION*
G04 Layer:  BOARD GEOMETRY/DESIGN_OUTLINE*
G04 *
G04 Offset:    (0.0000 0.0000)*
G04 Mirror:    No*
G04 Mode:      Positive*
G04 Rotation:  0*
G04 FullContactRelief:  No*
G04 UndefLineWidth:     0.1000*
G04 ================== end FILE IDENTIFICATION RECORD ====================*
%FSLAX25Y25*MOIN*%
%IR0*IPPOS*OFA0.00000B0.00000*MIA0B0*SFA1.00000B1.00000*%
%AMMACRO10*
1,1,.003937,.025,0.0*
20,1,.003937,.025,0.0,.02462,-.004341,0.0*
1,1,.003937,.02462,-.004341*
20,1,.003937,.02462,-.004341,.023492,-.008551,0.0*
1,1,.003937,.023492,-.008551*
20,1,.003937,.023492,-.008551,.021651,-.0125,0.0*
1,1,.003937,.021651,-.0125*
20,1,.003937,.021651,-.0125,.019151,-.01607,0.0*
1,1,.003937,.019151,-.01607*
20,1,.003937,.019151,-.01607,.01607,-.019151,0.0*
1,1,.003937,.01607,-.019151*
20,1,.003937,.01607,-.019151,.0125,-.021651,0.0*
1,1,.003937,.0125,-.021651*
20,1,.003937,.0125,-.021651,.008551,-.023492,0.0*
1,1,.003937,.008551,-.023492*
20,1,.003937,.008551,-.023492,.004341,-.02462,0.0*
1,1,.003937,.004341,-.02462*
20,1,.003937,.004341,-.02462,0.0,-.025,0.0*
1,1,.003937,0.0,-.025*
20,1,.003937,0.0,-.025,-.004341,-.02462,0.0*
1,1,.003937,-.004341,-.02462*
20,1,.003937,-.004341,-.02462,-.008551,-.023492,0.0*
1,1,.003937,-.008551,-.023492*
20,1,.003937,-.008551,-.023492,-.0125,-.021651,0.0*
1,1,.003937,-.0125,-.021651*
20,1,.003937,-.0125,-.021651,-.01607,-.019151,0.0*
1,1,.003937,-.01607,-.019151*
20,1,.003937,-.01607,-.019151,-.019151,-.01607,0.0*
1,1,.003937,-.019151,-.01607*
20,1,.003937,-.019151,-.01607,-.021651,-.0125,0.0*
1,1,.003937,-.021651,-.0125*
20,1,.003937,-.021651,-.0125,-.023492,-.008551,0.0*
1,1,.003937,-.023492,-.008551*
20,1,.003937,-.023492,-.008551,-.02462,-.004341,0.0*
1,1,.003937,-.02462,-.004341*
20,1,.003937,-.02462,-.004341,-.025,0.0,0.0*
1,1,.003937,-.025,0.0*
20,1,.003937,-.025,0.0,-.02462,.004341,0.0*
1,1,.003937,-.02462,.004341*
20,1,.003937,-.02462,.004341,-.023492,.008551,0.0*
1,1,.003937,-.023492,.008551*
20,1,.003937,-.023492,.008551,-.021651,.0125,0.0*
1,1,.003937,-.021651,.0125*
20,1,.003937,-.021651,.0125,-.019151,.01607,0.0*
1,1,.003937,-.019151,.01607*
20,1,.003937,-.019151,.01607,-.01607,.019151,0.0*
1,1,.003937,-.01607,.019151*
20,1,.003937,-.01607,.019151,-.0125,.021651,0.0*
1,1,.003937,-.0125,.021651*
20,1,.003937,-.0125,.021651,-.008551,.023492,0.0*
1,1,.003937,-.008551,.023492*
20,1,.003937,-.008551,.023492,-.004341,.02462,0.0*
1,1,.003937,-.004341,.02462*
20,1,.003937,-.004341,.02462,0.0,.025,0.0*
1,1,.003937,0.0,.025*
20,1,.003937,0.0,.025,.004341,.02462,0.0*
1,1,.003937,.004341,.02462*
20,1,.003937,.004341,.02462,.008551,.023492,0.0*
1,1,.003937,.008551,.023492*
20,1,.003937,.008551,.023492,.0125,.021651,0.0*
1,1,.003937,.0125,.021651*
20,1,.003937,.0125,.021651,.01607,.019151,0.0*
1,1,.003937,.01607,.019151*
20,1,.003937,.01607,.019151,.019151,.01607,0.0*
1,1,.003937,.019151,.01607*
20,1,.003937,.019151,.01607,.021651,.0125,0.0*
1,1,.003937,.021651,.0125*
20,1,.003937,.021651,.0125,.023492,.008551,0.0*
1,1,.003937,.023492,.008551*
20,1,.003937,.023492,.008551,.02462,.004341,0.0*
1,1,.003937,.02462,.004341*
20,1,.003937,.02462,.004341,.025,0.0,0.0*
1,1,.003937,.025,0.0*
1,1,.003937,.0125,0.0*
20,1,.003937,.0125,0.0,-.0125,0.0,0.0*
1,1,.003937,-.0125,0.0*
1,1,.003937,0.0,.0125*
20,1,.003937,0.0,.0125,0.0,-.0125,0.0*
1,1,.003937,0.0,-.0125*
%
%ADD10MACRO10*%
%ADD11C,.005906*%
%ADD12C,.003937*%
G75*
%LPD*%
G75*
G36*
G01X-188873Y101863D02*
Y97729D01*
X-186373D01*
Y-91247D01*
X-188873D01*
Y-95381D01*
X-173873D01*
Y-91247D01*
X-176373D01*
Y97729D01*
X-173873D01*
Y101863D01*
X-188873D01*
G37*
G36*
G01X-208873Y-95381D02*
Y-91247D01*
X-148873D01*
Y-95381D01*
X-208873D01*
G37*
G36*
G01Y97729D02*
Y101863D01*
X-148873D01*
Y97729D01*
X-208873D01*
G37*
G54D10*
X45856Y-141516D03*
X58898Y44409D03*
X90118Y47835D03*
X84370Y92087D03*
Y74882D03*
X63504Y82205D03*
X84646Y112677D03*
X62717Y103386D03*
X78740D03*
X81929Y125394D03*
X113082Y71761D03*
X101299Y69488D03*
X113082Y94083D03*
X96811Y92756D03*
G54D11*
G01X-216767Y-111227D02*
Y-107290D01*
X-215980D01*
X-215665Y-107487D01*
X-215428Y-107750D01*
X-215231Y-108143D01*
X-215074Y-108603D01*
X-215035Y-109259D01*
X-215074Y-109915D01*
X-215231Y-110374D01*
X-215428Y-110768D01*
X-215665Y-111030D01*
X-215980Y-111227D01*
X-216767D01*
G01X-212151D02*
X-213726D01*
Y-107290D01*
X-212151D01*
G01X-212781Y-109193D02*
X-213726D01*
G01X-210803Y-110702D02*
X-210488Y-111030D01*
X-210134Y-111227D01*
X-209819D01*
X-209504Y-111030D01*
X-209268Y-110702D01*
X-209150Y-110243D01*
X-209228Y-109784D01*
X-209425Y-109390D01*
X-209780Y-109128D01*
X-210252Y-108996D01*
X-210528Y-108734D01*
X-210646Y-108274D01*
X-210567Y-107815D01*
X-210370Y-107487D01*
X-210094Y-107290D01*
X-209819D01*
X-209543Y-107421D01*
X-209307Y-107750D01*
G01X-207487Y-107290D02*
X-206542D01*
G01X-207014D02*
Y-111227D01*
G01X-207487D02*
X-206542D01*
G01X-203816Y-109259D02*
X-203028D01*
Y-110440D01*
X-203265Y-110833D01*
X-203540Y-111096D01*
X-203934Y-111227D01*
X-204328Y-111096D01*
X-204603Y-110833D01*
X-204839Y-110440D01*
X-204997Y-109980D01*
X-205076Y-109456D01*
Y-108996D01*
X-204997Y-108603D01*
X-204839Y-108143D01*
X-204603Y-107750D01*
X-204367Y-107487D01*
X-204052Y-107290D01*
X-203776D01*
X-203461Y-107421D01*
X-203225Y-107684D01*
G01X-201995Y-111227D02*
Y-107290D01*
X-200184Y-111227D01*
Y-107290D01*
G01X-194299Y-107618D02*
X-194535Y-107421D01*
X-194811Y-107290D01*
X-195126D01*
X-195480Y-107487D01*
X-195756Y-107815D01*
X-195953Y-108209D01*
X-196110Y-108865D01*
X-196150Y-109456D01*
X-196071Y-110046D01*
X-195953Y-110440D01*
X-195717Y-110833D01*
X-195441Y-111096D01*
X-195165Y-111227D01*
X-194890D01*
X-194614Y-111096D01*
X-194378Y-110899D01*
X-194181Y-110637D01*
G01X-192991Y-111227D02*
Y-107290D01*
X-192006D01*
X-191691Y-107487D01*
X-191494Y-107750D01*
X-191416Y-108274D01*
X-191494Y-108799D01*
X-191731Y-109128D01*
X-192006Y-109324D01*
X-192991D01*
G01X-192006D02*
X-191416Y-111227D01*
G01X-189241D02*
X-189556Y-111161D01*
X-189831Y-110899D01*
X-190068Y-110506D01*
X-190225Y-110046D01*
X-190304Y-109521D01*
Y-108996D01*
X-190225Y-108471D01*
X-190068Y-108012D01*
X-189831Y-107618D01*
X-189556Y-107356D01*
X-189241Y-107290D01*
X-188926Y-107356D01*
X-188650Y-107618D01*
X-188414Y-108012D01*
X-188257Y-108471D01*
X-188178Y-108996D01*
Y-109521D01*
X-188257Y-110046D01*
X-188414Y-110506D01*
X-188650Y-110899D01*
X-188926Y-111161D01*
X-189241Y-111227D01*
G01X-187106Y-110702D02*
X-186791Y-111030D01*
X-186436Y-111227D01*
X-186121D01*
X-185806Y-111030D01*
X-185570Y-110702D01*
X-185452Y-110243D01*
X-185531Y-109784D01*
X-185728Y-109390D01*
X-186082Y-109128D01*
X-186554Y-108996D01*
X-186830Y-108734D01*
X-186948Y-108274D01*
X-186869Y-107815D01*
X-186672Y-107487D01*
X-186397Y-107290D01*
X-186121D01*
X-185846Y-107421D01*
X-185609Y-107750D01*
G01X-184143Y-110702D02*
X-183828Y-111030D01*
X-183474Y-111227D01*
X-183159D01*
X-182844Y-111030D01*
X-182608Y-110702D01*
X-182490Y-110243D01*
X-182569Y-109784D01*
X-182765Y-109390D01*
X-183120Y-109128D01*
X-183592Y-108996D01*
X-183868Y-108734D01*
X-183986Y-108274D01*
X-183907Y-107815D01*
X-183710Y-107487D01*
X-183435Y-107290D01*
X-183159D01*
X-182883Y-107421D01*
X-182647Y-107750D01*
G01X-178219Y-110702D02*
X-177904Y-111030D01*
X-177550Y-111227D01*
X-177235D01*
X-176920Y-111030D01*
X-176683Y-110702D01*
X-176565Y-110243D01*
X-176644Y-109784D01*
X-176841Y-109390D01*
X-177195Y-109128D01*
X-177668Y-108996D01*
X-177943Y-108734D01*
X-178061Y-108274D01*
X-177983Y-107815D01*
X-177786Y-107487D01*
X-177510Y-107290D01*
X-177235D01*
X-176959Y-107421D01*
X-176723Y-107750D01*
G01X-173643Y-111227D02*
X-175217D01*
Y-107290D01*
X-173643D01*
G01X-174272Y-109193D02*
X-175217D01*
G01X-170602Y-107618D02*
X-170838Y-107421D01*
X-171113Y-107290D01*
X-171428D01*
X-171783Y-107487D01*
X-172058Y-107815D01*
X-172255Y-108209D01*
X-172413Y-108865D01*
X-172452Y-109456D01*
X-172373Y-110046D01*
X-172255Y-110440D01*
X-172019Y-110833D01*
X-171743Y-111096D01*
X-171468Y-111227D01*
X-171192D01*
X-170917Y-111096D01*
X-170680Y-110899D01*
X-170483Y-110637D01*
G01X-168506Y-107290D02*
Y-111227D01*
G01X-169411Y-107290D02*
X-167600D01*
G01X-166016D02*
X-165071D01*
G01X-165543D02*
Y-111227D01*
G01X-166016D02*
X-165071D01*
G01X-162581D02*
X-162896Y-111161D01*
X-163172Y-110899D01*
X-163408Y-110506D01*
X-163565Y-110046D01*
X-163644Y-109521D01*
Y-108996D01*
X-163565Y-108471D01*
X-163408Y-108012D01*
X-163172Y-107618D01*
X-162896Y-107356D01*
X-162581Y-107290D01*
X-162266Y-107356D01*
X-161991Y-107618D01*
X-161754Y-108012D01*
X-161597Y-108471D01*
X-161518Y-108996D01*
Y-109521D01*
X-161597Y-110046D01*
X-161754Y-110506D01*
X-161991Y-110899D01*
X-162266Y-111161D01*
X-162581Y-111227D01*
G01X-160524D02*
Y-107290D01*
X-158713Y-111227D01*
Y-107290D01*
G01X-152828Y-107618D02*
X-153065Y-107421D01*
X-153340Y-107290D01*
X-153655D01*
X-154009Y-107487D01*
X-154285Y-107815D01*
X-154482Y-108209D01*
X-154639Y-108865D01*
X-154679Y-109456D01*
X-154600Y-110046D01*
X-154482Y-110440D01*
X-154246Y-110833D01*
X-153970Y-111096D01*
X-153694Y-111227D01*
X-153419D01*
X-153143Y-111096D01*
X-152907Y-110899D01*
X-152710Y-110637D01*
G01X-151559Y-111227D02*
Y-107290D01*
G01X-149906D02*
Y-111227D01*
G01Y-109259D02*
X-151559D01*
G01X-148754Y-111227D02*
X-147770Y-107290D01*
X-146786Y-111227D01*
G01X-147140Y-109849D02*
X-148400D01*
G01X-145595Y-111227D02*
Y-107290D01*
X-144611D01*
X-144296Y-107487D01*
X-144099Y-107750D01*
X-144020Y-108274D01*
X-144099Y-108799D01*
X-144335Y-109128D01*
X-144611Y-109324D01*
X-145595D01*
G01X-144611D02*
X-144020Y-111227D01*
G01X-141846Y-107290D02*
Y-111227D01*
G01X-142751Y-107290D02*
X-140940D01*
G01X-218563Y-112539D02*
X-216201D01*
G01X-215601D02*
X-213239D01*
G01X-212639D02*
X-210276D01*
G01X-209676D02*
X-207314D01*
G01X-206714D02*
X-204352D01*
G01X-203752D02*
X-201390D01*
G01X-200790D02*
X-198428D01*
G01X-197828D02*
X-195465D01*
G01X-194865D02*
X-192503D01*
G01X-191903D02*
X-189541D01*
G01X-188941D02*
X-186579D01*
G01X-185979D02*
X-183617D01*
G01X-183017D02*
X-180654D01*
G01X-180054D02*
X-177692D01*
G01X-177092D02*
X-174730D01*
G01X-174130D02*
X-171768D01*
G01X-171168D02*
X-168806D01*
G01X-168206D02*
X-165843D01*
G01X-165243D02*
X-162881D01*
G01X-162281D02*
X-159919D01*
G01X-159319D02*
X-156957D01*
G01X-156357D02*
X-153994D01*
G01X-153394D02*
X-151032D01*
G01X-150432D02*
X-148070D01*
G01X-147470D02*
X-145108D01*
G01X-144508D02*
X-142146D01*
G01X-141546D02*
X-139183D01*
G01X-211457Y-114377D02*
Y-118314D01*
G01X-212363Y-114377D02*
X-210552D01*
G01X-208495Y-118314D02*
X-208810Y-118248D01*
X-209086Y-117986D01*
X-209322Y-117592D01*
X-209480Y-117133D01*
X-209558Y-116608D01*
Y-116083D01*
X-209480Y-115558D01*
X-209322Y-115098D01*
X-209086Y-114705D01*
X-208810Y-114443D01*
X-208495Y-114377D01*
X-208180Y-114443D01*
X-207905Y-114705D01*
X-207669Y-115098D01*
X-207511Y-115558D01*
X-207432Y-116083D01*
Y-116608D01*
X-207511Y-117133D01*
X-207669Y-117592D01*
X-207905Y-117986D01*
X-208180Y-118248D01*
X-208495Y-118314D01*
G01X-205533Y-114377D02*
Y-118314D01*
G01X-206439Y-114377D02*
X-204628D01*
G01X-203555Y-118314D02*
X-202571Y-114377D01*
X-201587Y-118314D01*
G01X-201941Y-116936D02*
X-203201D01*
G01X-200396Y-114377D02*
Y-118314D01*
X-198821D01*
G01X-193684Y-114377D02*
Y-118314D01*
G01X-194590Y-114377D02*
X-192779D01*
G01X-191549Y-118314D02*
Y-114377D01*
G01X-189895D02*
Y-118314D01*
G01Y-116345D02*
X-191549D01*
G01X-188232Y-114377D02*
X-187287D01*
G01X-187760D02*
Y-118314D01*
G01X-188232D02*
X-187287D01*
G01X-183931Y-114705D02*
X-184168Y-114508D01*
X-184443Y-114377D01*
X-184758D01*
X-185113Y-114574D01*
X-185388Y-114902D01*
X-185585Y-115295D01*
X-185743Y-115952D01*
X-185782Y-116542D01*
X-185703Y-117133D01*
X-185585Y-117526D01*
X-185349Y-117920D01*
X-185073Y-118183D01*
X-184798Y-118314D01*
X-184522D01*
X-184246Y-118183D01*
X-184010Y-117986D01*
X-183813Y-117723D01*
G01X-182702Y-118314D02*
Y-114377D01*
G01X-181206D02*
X-182702Y-116805D01*
G01X-180969Y-118314D02*
X-182032Y-115689D01*
G01X-179779Y-118314D02*
Y-114377D01*
X-177968Y-118314D01*
Y-114377D01*
G01X-175124Y-118314D02*
X-176698D01*
Y-114377D01*
X-175124D01*
G01X-175754Y-116280D02*
X-176698D01*
G01X-173776Y-117789D02*
X-173461Y-118117D01*
X-173106Y-118314D01*
X-172791D01*
X-172476Y-118117D01*
X-172240Y-117789D01*
X-172122Y-117330D01*
X-172201Y-116870D01*
X-172398Y-116476D01*
X-172752Y-116214D01*
X-173224Y-116083D01*
X-173500Y-115820D01*
X-173618Y-115361D01*
X-173539Y-114902D01*
X-173343Y-114574D01*
X-173067Y-114377D01*
X-172791D01*
X-172516Y-114508D01*
X-172280Y-114836D01*
G01X-170813Y-117789D02*
X-170498Y-118117D01*
X-170144Y-118314D01*
X-169829D01*
X-169514Y-118117D01*
X-169278Y-117789D01*
X-169160Y-117330D01*
X-169239Y-116870D01*
X-169435Y-116476D01*
X-169790Y-116214D01*
X-170262Y-116083D01*
X-170538Y-115820D01*
X-170656Y-115361D01*
X-170577Y-114902D01*
X-170380Y-114574D01*
X-170105Y-114377D01*
X-169829D01*
X-169554Y-114508D01*
X-169317Y-114836D01*
G01X-164062Y-118314D02*
Y-114377D01*
X-164535Y-115164D01*
G01Y-118314D02*
X-163590D01*
G01X-161100Y-118445D02*
X-161179Y-118380D01*
Y-118248D01*
X-161100Y-118183D01*
X-161021Y-118248D01*
Y-118380D01*
X-161100Y-118445D01*
G01X-158886Y-116674D02*
X-158610Y-116214D01*
X-158374Y-115952D01*
X-158059Y-115820D01*
X-157783Y-115952D01*
X-157587Y-116214D01*
X-157429Y-116608D01*
X-157390Y-117067D01*
X-157429Y-117461D01*
X-157587Y-117855D01*
X-157823Y-118183D01*
X-158098Y-118314D01*
X-158413Y-118183D01*
X-158689Y-117789D01*
X-158846Y-117198D01*
X-158886Y-116542D01*
X-158807Y-115689D01*
X-158689Y-115230D01*
X-158492Y-114770D01*
X-158217Y-114443D01*
X-157941Y-114377D01*
X-157665Y-114508D01*
X-157469Y-114836D01*
G01X-155254Y-118314D02*
X-155176Y-117461D01*
X-155057Y-116739D01*
X-154900Y-116083D01*
X-154703Y-115361D01*
X-154388Y-114377D01*
X-155963D01*
G01X-150275Y-118314D02*
Y-114377D01*
X-149251Y-117657D01*
X-148228Y-114377D01*
Y-118314D01*
G01X-147313D02*
Y-114377D01*
X-146289Y-117657D01*
X-145265Y-114377D01*
Y-118314D01*
G01X-181373Y106981D02*
X-185310D01*
X-184523Y106509D01*
G01X-181373D02*
Y107454D01*
G01X-182685Y109431D02*
Y110455D01*
G01X-184654Y112157D02*
X-185048Y112394D01*
X-185244Y112669D01*
X-185310Y112984D01*
X-185179Y113378D01*
X-184851Y113654D01*
X-184457Y113732D01*
X-184063Y113693D01*
X-183735Y113535D01*
X-183079Y112748D01*
X-182620Y112394D01*
X-181964Y112157D01*
X-181373Y112079D01*
Y113732D01*
G01X-145517Y-92559D02*
Y-96496D01*
X-143943D01*
G01X-142516Y-93216D02*
X-142280Y-92822D01*
X-142004Y-92625D01*
X-141689Y-92559D01*
X-141295Y-92691D01*
X-141020Y-93019D01*
X-140941Y-93413D01*
X-140980Y-93806D01*
X-141138Y-94134D01*
X-141925Y-94791D01*
X-142280Y-95250D01*
X-142516Y-95906D01*
X-142594Y-96496D01*
X-140941D01*
G01X-135528Y-94397D02*
X-135371Y-94200D01*
X-135253Y-93872D01*
X-135174Y-93413D01*
X-135253Y-93019D01*
X-135410Y-92756D01*
X-135686Y-92559D01*
X-136749D01*
Y-96496D01*
X-135450D01*
X-135174Y-96234D01*
X-135017Y-95840D01*
X-134938Y-95381D01*
X-135017Y-94922D01*
X-135253Y-94528D01*
X-135528Y-94397D01*
X-136749D01*
G01X-132881Y-96496D02*
X-133196Y-96431D01*
X-133472Y-96169D01*
X-133708Y-95775D01*
X-133865Y-95315D01*
X-133944Y-94791D01*
Y-94265D01*
X-133865Y-93741D01*
X-133708Y-93281D01*
X-133472Y-92887D01*
X-133196Y-92625D01*
X-132881Y-92559D01*
X-132566Y-92625D01*
X-132291Y-92887D01*
X-132054Y-93281D01*
X-131897Y-93741D01*
X-131818Y-94265D01*
Y-94791D01*
X-131897Y-95315D01*
X-132054Y-95775D01*
X-132291Y-96169D01*
X-132566Y-96431D01*
X-132881Y-96496D01*
G01X-129919Y-92559D02*
Y-96496D01*
G01X-130824Y-92559D02*
X-129013D01*
G01X-126957D02*
Y-96496D01*
G01X-127862Y-92559D02*
X-126051D01*
G01X-123994Y-96496D02*
X-124309Y-96431D01*
X-124585Y-96169D01*
X-124821Y-95775D01*
X-124979Y-95315D01*
X-125057Y-94791D01*
Y-94265D01*
X-124979Y-93741D01*
X-124821Y-93281D01*
X-124585Y-92887D01*
X-124309Y-92625D01*
X-123994Y-92559D01*
X-123680Y-92625D01*
X-123404Y-92887D01*
X-123168Y-93281D01*
X-123010Y-93741D01*
X-122931Y-94265D01*
Y-94791D01*
X-123010Y-95315D01*
X-123168Y-95775D01*
X-123404Y-96169D01*
X-123680Y-96431D01*
X-123994Y-96496D01*
G01X-122056D02*
Y-92559D01*
X-121032Y-95840D01*
X-120009Y-92559D01*
Y-96496D01*
G01X-114242Y-92887D02*
X-114478Y-92691D01*
X-114754Y-92559D01*
X-115069D01*
X-115423Y-92756D01*
X-115698Y-93084D01*
X-115895Y-93478D01*
X-116053Y-94134D01*
X-116092Y-94725D01*
X-116013Y-95315D01*
X-115895Y-95709D01*
X-115659Y-96103D01*
X-115383Y-96365D01*
X-115108Y-96496D01*
X-114832D01*
X-114557Y-96365D01*
X-114320Y-96169D01*
X-114124Y-95906D01*
G01X-112146Y-96496D02*
X-112461Y-96431D01*
X-112736Y-96169D01*
X-112972Y-95775D01*
X-113130Y-95315D01*
X-113209Y-94791D01*
Y-94265D01*
X-113130Y-93741D01*
X-112972Y-93281D01*
X-112736Y-92887D01*
X-112461Y-92625D01*
X-112146Y-92559D01*
X-111831Y-92625D01*
X-111555Y-92887D01*
X-111319Y-93281D01*
X-111161Y-93741D01*
X-111083Y-94265D01*
Y-94791D01*
X-111161Y-95315D01*
X-111319Y-95775D01*
X-111555Y-96169D01*
X-111831Y-96431D01*
X-112146Y-96496D01*
G01X-110089D02*
Y-92559D01*
X-108278Y-96496D01*
Y-92559D01*
G01X-107087Y-96496D02*
Y-92559D01*
X-106300D01*
X-105985Y-92756D01*
X-105749Y-93019D01*
X-105552Y-93413D01*
X-105394Y-93872D01*
X-105355Y-94528D01*
X-105394Y-95184D01*
X-105552Y-95643D01*
X-105749Y-96037D01*
X-105985Y-96300D01*
X-106300Y-96496D01*
X-107087D01*
G01X-104125Y-92559D02*
Y-95381D01*
X-103968Y-95972D01*
X-103653Y-96365D01*
X-103259Y-96496D01*
X-102865Y-96365D01*
X-102550Y-95972D01*
X-102393Y-95381D01*
Y-92559D01*
G01X-99431Y-92887D02*
X-99667Y-92691D01*
X-99943Y-92559D01*
X-100257D01*
X-100612Y-92756D01*
X-100887Y-93084D01*
X-101084Y-93478D01*
X-101242Y-94134D01*
X-101281Y-94725D01*
X-101202Y-95315D01*
X-101084Y-95709D01*
X-100848Y-96103D01*
X-100572Y-96365D01*
X-100297Y-96496D01*
X-100021D01*
X-99746Y-96365D01*
X-99509Y-96169D01*
X-99313Y-95906D01*
G01X-97335Y-92559D02*
Y-96496D01*
G01X-98240Y-92559D02*
X-96429D01*
G01X-94372Y-96496D02*
X-94687Y-96431D01*
X-94963Y-96169D01*
X-95199Y-95775D01*
X-95357Y-95315D01*
X-95435Y-94791D01*
Y-94265D01*
X-95357Y-93741D01*
X-95199Y-93281D01*
X-94963Y-92887D01*
X-94687Y-92625D01*
X-94372Y-92559D01*
X-94057Y-92625D01*
X-93782Y-92887D01*
X-93546Y-93281D01*
X-93388Y-93741D01*
X-93309Y-94265D01*
Y-94791D01*
X-93388Y-95315D01*
X-93546Y-95775D01*
X-93782Y-96169D01*
X-94057Y-96431D01*
X-94372Y-96496D01*
G01X-92198D02*
Y-92559D01*
X-91213D01*
X-90898Y-92756D01*
X-90702Y-93019D01*
X-90623Y-93544D01*
X-90702Y-94069D01*
X-90938Y-94397D01*
X-91213Y-94594D01*
X-92198D01*
G01X-91213D02*
X-90623Y-96496D01*
G01X-139672Y-101877D02*
X-137939Y-98990D01*
G01X-138806Y-98465D02*
Y-102402D01*
G01X-137939Y-101877D02*
X-139672Y-98990D01*
G01X-139987Y-100433D02*
X-137624D01*
G01X-130746Y-101221D02*
X-130431Y-101549D01*
X-130076Y-101746D01*
X-129761D01*
X-129446Y-101549D01*
X-129210Y-101221D01*
X-129092Y-100761D01*
X-129171Y-100302D01*
X-129368Y-99908D01*
X-129722Y-99646D01*
X-130194Y-99515D01*
X-130470Y-99252D01*
X-130588Y-98793D01*
X-130509Y-98333D01*
X-130313Y-98006D01*
X-130037Y-97809D01*
X-129761D01*
X-129486Y-97940D01*
X-129250Y-98268D01*
G01X-127823Y-97809D02*
Y-100630D01*
X-127665Y-101221D01*
X-127350Y-101615D01*
X-126957Y-101746D01*
X-126563Y-101615D01*
X-126248Y-101221D01*
X-126091Y-100630D01*
Y-97809D01*
G01X-124782Y-101746D02*
Y-97809D01*
X-123798D01*
X-123483Y-98006D01*
X-123286Y-98268D01*
X-123207Y-98793D01*
X-123286Y-99318D01*
X-123522Y-99646D01*
X-123798Y-99843D01*
X-124782D01*
G01X-123798D02*
X-123207Y-101746D01*
G01X-121780D02*
Y-97809D01*
X-120284D01*
G01X-120835Y-99711D02*
X-121780D01*
G01X-119054Y-101746D02*
X-118070Y-97809D01*
X-117086Y-101746D01*
G01X-117440Y-100368D02*
X-118700D01*
G01X-114242Y-98137D02*
X-114478Y-97940D01*
X-114754Y-97809D01*
X-115069D01*
X-115423Y-98006D01*
X-115698Y-98333D01*
X-115895Y-98727D01*
X-116053Y-99383D01*
X-116092Y-99974D01*
X-116013Y-100565D01*
X-115895Y-100958D01*
X-115659Y-101352D01*
X-115383Y-101615D01*
X-115108Y-101746D01*
X-114832D01*
X-114557Y-101615D01*
X-114320Y-101418D01*
X-114124Y-101155D01*
G01X-111358Y-101746D02*
X-112933D01*
Y-97809D01*
X-111358D01*
G01X-111988Y-99711D02*
X-112933D01*
G01X-139672Y3110D02*
X-137939Y5997D01*
G01X-138806Y6522D02*
Y2585D01*
G01X-137939Y3110D02*
X-139672Y5997D01*
G01X-139987Y4553D02*
X-137624D01*
G01X-130785Y3241D02*
Y7178D01*
X-129998D01*
X-129683Y6981D01*
X-129446Y6719D01*
X-129250Y6325D01*
X-129092Y5865D01*
X-129053Y5209D01*
X-129092Y4553D01*
X-129250Y4094D01*
X-129446Y3700D01*
X-129683Y3438D01*
X-129998Y3241D01*
X-130785D01*
G01X-127429Y7178D02*
X-126484D01*
G01X-126957D02*
Y3241D01*
G01X-127429D02*
X-126484D01*
G01X-123207D02*
X-124782D01*
Y7178D01*
X-123207D01*
G01X-123837Y5275D02*
X-124782D01*
G01X-121820Y7178D02*
Y3241D01*
X-120245D01*
G01X-117283D02*
X-118857D01*
Y7178D01*
X-117283D01*
G01X-117913Y5275D02*
X-118857D01*
G01X-114242Y6850D02*
X-114478Y7047D01*
X-114754Y7178D01*
X-115069D01*
X-115423Y6981D01*
X-115698Y6653D01*
X-115895Y6259D01*
X-116053Y5603D01*
X-116092Y5013D01*
X-116013Y4422D01*
X-115895Y4028D01*
X-115659Y3635D01*
X-115383Y3372D01*
X-115108Y3241D01*
X-114832D01*
X-114557Y3372D01*
X-114320Y3569D01*
X-114124Y3831D01*
G01X-112146Y7178D02*
Y3241D01*
G01X-113051Y7178D02*
X-111240D01*
G01X-109971Y3241D02*
Y7178D01*
X-108987D01*
X-108672Y6981D01*
X-108475Y6719D01*
X-108396Y6194D01*
X-108475Y5669D01*
X-108711Y5341D01*
X-108987Y5144D01*
X-109971D01*
G01X-108987D02*
X-108396Y3241D01*
G01X-106694Y7178D02*
X-105749D01*
G01X-106221D02*
Y3241D01*
G01X-106694D02*
X-105749D01*
G01X-102393Y6850D02*
X-102629Y7047D01*
X-102905Y7178D01*
X-103220D01*
X-103574Y6981D01*
X-103850Y6653D01*
X-104046Y6259D01*
X-104204Y5603D01*
X-104243Y5013D01*
X-104165Y4422D01*
X-104046Y4028D01*
X-103810Y3635D01*
X-103535Y3372D01*
X-103259Y3241D01*
X-102983D01*
X-102708Y3372D01*
X-102472Y3569D01*
X-102275Y3831D01*
G01X-139672Y103044D02*
X-137939Y105931D01*
G01X-138806Y106456D02*
Y102519D01*
G01X-137939Y103044D02*
X-139672Y105931D01*
G01X-139987Y104487D02*
X-137624D01*
G01X-130746Y103700D02*
X-130431Y103372D01*
X-130076Y103175D01*
X-129761D01*
X-129446Y103372D01*
X-129210Y103700D01*
X-129092Y104159D01*
X-129171Y104619D01*
X-129368Y105013D01*
X-129722Y105275D01*
X-130194Y105406D01*
X-130470Y105669D01*
X-130588Y106128D01*
X-130509Y106587D01*
X-130313Y106915D01*
X-130037Y107112D01*
X-129761D01*
X-129486Y106981D01*
X-129250Y106653D01*
G01X-127823Y107112D02*
Y104291D01*
X-127665Y103700D01*
X-127350Y103306D01*
X-126957Y103175D01*
X-126563Y103306D01*
X-126248Y103700D01*
X-126091Y104291D01*
Y107112D01*
G01X-124782Y103175D02*
Y107112D01*
X-123798D01*
X-123483Y106915D01*
X-123286Y106653D01*
X-123207Y106128D01*
X-123286Y105603D01*
X-123522Y105275D01*
X-123798Y105078D01*
X-124782D01*
G01X-123798D02*
X-123207Y103175D01*
G01X-121780D02*
Y107112D01*
X-120284D01*
G01X-120835Y105209D02*
X-121780D01*
G01X-119054Y103175D02*
X-118070Y107112D01*
X-117086Y103175D01*
G01X-117440Y104553D02*
X-118700D01*
G01X-114242Y106784D02*
X-114478Y106981D01*
X-114754Y107112D01*
X-115069D01*
X-115423Y106915D01*
X-115698Y106587D01*
X-115895Y106194D01*
X-116053Y105537D01*
X-116092Y104947D01*
X-116013Y104356D01*
X-115895Y103963D01*
X-115659Y103569D01*
X-115383Y103306D01*
X-115108Y103175D01*
X-114832D01*
X-114557Y103306D01*
X-114320Y103503D01*
X-114124Y103766D01*
G01X-111358Y103175D02*
X-112933D01*
Y107112D01*
X-111358D01*
G01X-111988Y105209D02*
X-112933D01*
G01X-145517Y100551D02*
Y96614D01*
X-143943D01*
G01X-141768D02*
Y100551D01*
X-142240Y99763D01*
G01Y96614D02*
X-141295D01*
G01X-135843Y100551D02*
Y96614D01*
G01X-136749Y100551D02*
X-134938D01*
G01X-132881Y96614D02*
X-133196Y96680D01*
X-133472Y96942D01*
X-133708Y97335D01*
X-133865Y97795D01*
X-133944Y98320D01*
Y98845D01*
X-133865Y99370D01*
X-133708Y99829D01*
X-133472Y100223D01*
X-133196Y100485D01*
X-132881Y100551D01*
X-132566Y100485D01*
X-132291Y100223D01*
X-132054Y99829D01*
X-131897Y99370D01*
X-131818Y98845D01*
Y98320D01*
X-131897Y97795D01*
X-132054Y97335D01*
X-132291Y96942D01*
X-132566Y96680D01*
X-132881Y96614D01*
G01X-130706D02*
Y100551D01*
X-129761D01*
X-129446Y100354D01*
X-129210Y99894D01*
X-129131Y99370D01*
X-129210Y98845D01*
X-129407Y98451D01*
X-129761Y98254D01*
X-130706D01*
G01X-123128Y100223D02*
X-123365Y100420D01*
X-123640Y100551D01*
X-123955D01*
X-124309Y100354D01*
X-124585Y100026D01*
X-124782Y99632D01*
X-124939Y98976D01*
X-124979Y98385D01*
X-124900Y97795D01*
X-124782Y97401D01*
X-124546Y97007D01*
X-124270Y96745D01*
X-123994Y96614D01*
X-123719D01*
X-123443Y96745D01*
X-123207Y96942D01*
X-123010Y97204D01*
G01X-121032Y96614D02*
X-121347Y96680D01*
X-121623Y96942D01*
X-121859Y97335D01*
X-122017Y97795D01*
X-122095Y98320D01*
Y98845D01*
X-122017Y99370D01*
X-121859Y99829D01*
X-121623Y100223D01*
X-121347Y100485D01*
X-121032Y100551D01*
X-120717Y100485D01*
X-120442Y100223D01*
X-120206Y99829D01*
X-120048Y99370D01*
X-119969Y98845D01*
Y98320D01*
X-120048Y97795D01*
X-120206Y97335D01*
X-120442Y96942D01*
X-120717Y96680D01*
X-121032Y96614D01*
G01X-118976D02*
Y100551D01*
X-117165Y96614D01*
Y100551D01*
G01X-115974Y96614D02*
Y100551D01*
X-115187D01*
X-114872Y100354D01*
X-114635Y100091D01*
X-114439Y99698D01*
X-114281Y99238D01*
X-114242Y98582D01*
X-114281Y97926D01*
X-114439Y97467D01*
X-114635Y97073D01*
X-114872Y96811D01*
X-115187Y96614D01*
X-115974D01*
G01X-113012Y100551D02*
Y97729D01*
X-112854Y97139D01*
X-112539Y96745D01*
X-112146Y96614D01*
X-111752Y96745D01*
X-111437Y97139D01*
X-111280Y97729D01*
Y100551D01*
G01X-108317Y100223D02*
X-108554Y100420D01*
X-108829Y100551D01*
X-109144D01*
X-109498Y100354D01*
X-109774Y100026D01*
X-109971Y99632D01*
X-110128Y98976D01*
X-110168Y98385D01*
X-110089Y97795D01*
X-109971Y97401D01*
X-109735Y97007D01*
X-109459Y96745D01*
X-109183Y96614D01*
X-108908D01*
X-108632Y96745D01*
X-108396Y96942D01*
X-108199Y97204D01*
G01X-106221Y100551D02*
Y96614D01*
G01X-107127Y100551D02*
X-105316D01*
G01X-103259Y96614D02*
X-103574Y96680D01*
X-103850Y96942D01*
X-104086Y97335D01*
X-104243Y97795D01*
X-104322Y98320D01*
Y98845D01*
X-104243Y99370D01*
X-104086Y99829D01*
X-103850Y100223D01*
X-103574Y100485D01*
X-103259Y100551D01*
X-102944Y100485D01*
X-102669Y100223D01*
X-102432Y99829D01*
X-102275Y99370D01*
X-102196Y98845D01*
Y98320D01*
X-102275Y97795D01*
X-102432Y97335D01*
X-102669Y96942D01*
X-102944Y96680D01*
X-103259Y96614D01*
G01X-101084D02*
Y100551D01*
X-100100D01*
X-99785Y100354D01*
X-99588Y100091D01*
X-99509Y99567D01*
X-99588Y99042D01*
X-99824Y98713D01*
X-100100Y98517D01*
X-101084D01*
G01X-100100D02*
X-99509Y96614D01*
G54D12*
G01X-208873Y-91247D02*
Y97729D01*
X-148873D01*
Y-91247D01*
X-208873D01*
G01X906Y-154016D02*
Y-53425D01*
X496906D01*
Y-154016D01*
X906D01*
G01X11910Y-122766D02*
Y-110266D01*
X17801D01*
G01X15630Y-116307D02*
X11910D01*
G01X25396Y-110266D02*
X29115D01*
G01X27256D02*
Y-122766D01*
G01X25396D02*
X29115D01*
G01X40585Y-116516D02*
X43686D01*
Y-120266D01*
X42756Y-121516D01*
X41670Y-122349D01*
X40120Y-122766D01*
X38570Y-122349D01*
X37485Y-121516D01*
X36556Y-120266D01*
X35935Y-118807D01*
X35625Y-117141D01*
Y-115682D01*
X35935Y-114433D01*
X36556Y-112974D01*
X37485Y-111724D01*
X38415Y-110891D01*
X39656Y-110266D01*
X40741D01*
X41980Y-110682D01*
X42911Y-111516D01*
G01X48646Y-110266D02*
Y-119224D01*
X49265Y-121100D01*
X50506Y-122349D01*
X52056Y-122766D01*
X53606Y-122349D01*
X54846Y-121100D01*
X55465Y-119224D01*
Y-110266D01*
G01X61356Y-122766D02*
Y-110266D01*
X65230D01*
X66470Y-110891D01*
X67246Y-111724D01*
X67556Y-113391D01*
X67246Y-115057D01*
X66315Y-116099D01*
X65230Y-116724D01*
X61356D01*
G01X65230D02*
X67556Y-122766D01*
G01X79956D02*
X73756D01*
Y-110266D01*
X79956D01*
G01X77476Y-116307D02*
X73756D01*
G01X906Y-129016D02*
X496906D01*
G01X906Y-104016D02*
X496906D01*
G01X906Y-79016D02*
X496906D01*
G01X0Y147638D02*
Y-42992D01*
G01X61547Y-33150D02*
X0D01*
G01X15748Y-30689D02*
X0Y-33150D01*
X15748Y-35610D01*
Y-30689D01*
G01X0Y0D02*
Y157480D01*
X157480D01*
Y0D01*
X0D01*
G01X77630Y-97766D02*
X81506Y-85266D01*
X85381Y-97766D01*
G01X83985Y-93391D02*
X79025D01*
G01X90806Y-85266D02*
Y-97766D01*
X97006D01*
G01X103206Y-85266D02*
Y-97766D01*
X109406D01*
G01X127696Y-85266D02*
Y-94224D01*
X128315Y-96100D01*
X129556Y-97349D01*
X131106Y-97766D01*
X132656Y-97349D01*
X133896Y-96100D01*
X134515Y-94224D01*
Y-85266D01*
G01X139941Y-97766D02*
Y-85266D01*
X147070Y-97766D01*
Y-85266D01*
G01X154046D02*
X157765D01*
G01X155906D02*
Y-97766D01*
G01X154046D02*
X157765D01*
G01X168306Y-85266D02*
Y-97766D01*
G01X164741Y-85266D02*
X171870D01*
G01X177450Y-96100D02*
X178691Y-97141D01*
X180085Y-97766D01*
X181326D01*
X182565Y-97141D01*
X183496Y-96100D01*
X183961Y-94641D01*
X183651Y-93183D01*
X182876Y-91933D01*
X181480Y-91099D01*
X179620Y-90682D01*
X178535Y-89849D01*
X178070Y-88391D01*
X178381Y-86932D01*
X179156Y-85891D01*
X180241Y-85266D01*
X181326D01*
X182411Y-85682D01*
X183341Y-86724D01*
G01X201630Y-97766D02*
X205506Y-85266D01*
X209381Y-97766D01*
G01X207985Y-93391D02*
X203025D01*
G01X214806Y-97766D02*
Y-85266D01*
X218680D01*
X219920Y-85891D01*
X220696Y-86724D01*
X221006Y-88391D01*
X220696Y-90057D01*
X219765Y-91099D01*
X218680Y-91724D01*
X214806D01*
G01X218680D02*
X221006Y-97766D01*
G01X233406D02*
X227206D01*
Y-85266D01*
X233406D01*
G01X230926Y-91307D02*
X227206D01*
G01X253246Y-85266D02*
X256965D01*
G01X255106D02*
Y-97766D01*
G01X253246D02*
X256965D01*
G01X263941D02*
Y-85266D01*
X271070Y-97766D01*
Y-85266D01*
G01X288275Y-97766D02*
Y-85266D01*
X292306Y-95682D01*
X296336Y-85266D01*
Y-97766D01*
G01X302846Y-85266D02*
X306565D01*
G01X304706D02*
Y-97766D01*
G01X302846D02*
X306565D01*
G01X314006Y-85266D02*
Y-97766D01*
X320206D01*
G01X326406Y-85266D02*
Y-97766D01*
X332606D01*
G01X340046Y-85266D02*
X343765D01*
G01X341906D02*
Y-97766D01*
G01X340046D02*
X343765D01*
G01X350275D02*
Y-85266D01*
X354306Y-95682D01*
X358336Y-85266D01*
Y-97766D01*
G01X369806D02*
X363606D01*
Y-85266D01*
X369806D01*
G01X367326Y-91307D02*
X363606D01*
G01X379106Y-85266D02*
Y-97766D01*
G01X375541Y-85266D02*
X382670D01*
G01X394606Y-97766D02*
X388406D01*
Y-85266D01*
X394606D01*
G01X392126Y-91307D02*
X388406D01*
G01X400806Y-97766D02*
Y-85266D01*
X404680D01*
X405920Y-85891D01*
X406696Y-86724D01*
X407006Y-88391D01*
X406696Y-90057D01*
X405765Y-91099D01*
X404680Y-91724D01*
X400806D01*
G01X404680D02*
X407006Y-97766D01*
G01X413050Y-96100D02*
X414291Y-97141D01*
X415685Y-97766D01*
X416926D01*
X418165Y-97141D01*
X419096Y-96100D01*
X419561Y-94641D01*
X419251Y-93183D01*
X418476Y-91933D01*
X417080Y-91099D01*
X415220Y-90682D01*
X414135Y-89849D01*
X413670Y-88391D01*
X413981Y-86932D01*
X414756Y-85891D01*
X415841Y-85266D01*
X416926D01*
X418011Y-85682D01*
X418941Y-86724D01*
G01X90496Y-72175D02*
Y-59675D01*
X93595D01*
X94835Y-60300D01*
X95765Y-61133D01*
X96541Y-62383D01*
X97161Y-63842D01*
X97315Y-65925D01*
X97161Y-68009D01*
X96541Y-69467D01*
X95765Y-70717D01*
X94835Y-71550D01*
X93595Y-72175D01*
X90496D01*
G01X103206D02*
Y-59675D01*
X107080D01*
X108320Y-60300D01*
X109096Y-61133D01*
X109406Y-62800D01*
X109096Y-64467D01*
X108165Y-65508D01*
X107080Y-66134D01*
X103206D01*
G01X107080D02*
X109406Y-72175D01*
G01X116846Y-59675D02*
X120565D01*
G01X118706D02*
Y-72175D01*
G01X116846D02*
X120565D01*
G01X128006Y-59675D02*
Y-72175D01*
X134206D01*
G01X140406Y-59675D02*
Y-72175D01*
X146606D01*
G01X171715Y-60717D02*
X170785Y-60092D01*
X169701Y-59675D01*
X168461D01*
X167065Y-60300D01*
X165981Y-61342D01*
X165206Y-62592D01*
X164585Y-64675D01*
X164430Y-66550D01*
X164741Y-68425D01*
X165206Y-69675D01*
X166135Y-70926D01*
X167220Y-71759D01*
X168306Y-72175D01*
X169391D01*
X170476Y-71759D01*
X171406Y-71134D01*
X172181Y-70301D01*
G01X177450Y-72175D02*
Y-59675D01*
G01X183961D02*
Y-72175D01*
G01Y-65925D02*
X177450D01*
G01X189230Y-72175D02*
X193106Y-59675D01*
X196981Y-72175D01*
G01X195585Y-67800D02*
X190625D01*
G01X202406Y-72175D02*
Y-59675D01*
X206280D01*
X207520Y-60300D01*
X208296Y-61133D01*
X208606Y-62800D01*
X208296Y-64467D01*
X207365Y-65508D01*
X206280Y-66134D01*
X202406D01*
G01X206280D02*
X208606Y-72175D01*
G01X217906Y-59675D02*
Y-72175D01*
G01X214341Y-59675D02*
X221470D01*
G01X230306Y-72592D02*
X229995Y-72383D01*
Y-71967D01*
X230306Y-71759D01*
X230616Y-71967D01*
Y-72383D01*
X230306Y-72592D01*
G01Y-66967D02*
X229995Y-66759D01*
Y-66342D01*
X230306Y-66134D01*
X230616Y-66342D01*
Y-66759D01*
X230306Y-66967D01*
G01X255106Y-59675D02*
Y-72175D01*
G01X251541Y-59675D02*
X258670D01*
G01X267506Y-72175D02*
X266265Y-71967D01*
X265181Y-71134D01*
X264250Y-69883D01*
X263630Y-68425D01*
X263320Y-66759D01*
Y-65092D01*
X263630Y-63425D01*
X264250Y-61967D01*
X265181Y-60717D01*
X266265Y-59883D01*
X267506Y-59675D01*
X268745Y-59883D01*
X269830Y-60717D01*
X270761Y-61967D01*
X271381Y-63425D01*
X271691Y-65092D01*
Y-66759D01*
X271381Y-68425D01*
X270761Y-69883D01*
X269830Y-71134D01*
X268745Y-71967D01*
X267506Y-72175D01*
G01X276806D02*
Y-59675D01*
X280526D01*
X281765Y-60300D01*
X282696Y-61759D01*
X283006Y-63425D01*
X282696Y-65092D01*
X281920Y-66342D01*
X280526Y-66967D01*
X276806D01*
G01X304706Y-59675D02*
Y-72175D01*
G01X302535Y-63842D02*
X306876D01*
G01X317106Y-72175D02*
X316176Y-71967D01*
X315246Y-71134D01*
X314625Y-69675D01*
X314315Y-68009D01*
X314625Y-66342D01*
X315246Y-64883D01*
X316176Y-64050D01*
X317106Y-63842D01*
X318035Y-64050D01*
X318965Y-64883D01*
X319585Y-66342D01*
X319741Y-68009D01*
X319585Y-69675D01*
X318965Y-71134D01*
X318035Y-71967D01*
X317106Y-72175D01*
G01X343145Y-65508D02*
X343765Y-64883D01*
X344230Y-63842D01*
X344541Y-62383D01*
X344230Y-61133D01*
X343611Y-60300D01*
X342526Y-59675D01*
X338341D01*
Y-72175D01*
X343456D01*
X344541Y-71342D01*
X345161Y-70092D01*
X345470Y-68633D01*
X345161Y-67176D01*
X344230Y-65925D01*
X343145Y-65508D01*
X338341D01*
G01X354306Y-72175D02*
X353065Y-71967D01*
X351981Y-71134D01*
X351050Y-69883D01*
X350430Y-68425D01*
X350120Y-66759D01*
Y-65092D01*
X350430Y-63425D01*
X351050Y-61967D01*
X351981Y-60717D01*
X353065Y-59883D01*
X354306Y-59675D01*
X355545Y-59883D01*
X356630Y-60717D01*
X357561Y-61967D01*
X358181Y-63425D01*
X358491Y-65092D01*
Y-66759D01*
X358181Y-68425D01*
X357561Y-69883D01*
X356630Y-71134D01*
X355545Y-71967D01*
X354306Y-72175D01*
G01X366706Y-59675D02*
Y-72175D01*
G01X363141Y-59675D02*
X370270D01*
G01X379106D02*
Y-72175D01*
G01X375541Y-59675D02*
X382670D01*
G01X391506Y-72175D02*
X390265Y-71967D01*
X389181Y-71134D01*
X388250Y-69883D01*
X387630Y-68425D01*
X387320Y-66759D01*
Y-65092D01*
X387630Y-63425D01*
X388250Y-61967D01*
X389181Y-60717D01*
X390265Y-59883D01*
X391506Y-59675D01*
X392745Y-59883D01*
X393830Y-60717D01*
X394761Y-61967D01*
X395381Y-63425D01*
X395691Y-65092D01*
Y-66759D01*
X395381Y-68425D01*
X394761Y-69883D01*
X393830Y-71134D01*
X392745Y-71967D01*
X391506Y-72175D01*
G01X399875D02*
Y-59675D01*
X403906Y-70092D01*
X407936Y-59675D01*
Y-72175D01*
G01X77431Y-39400D02*
Y-26900D01*
X71696Y-35858D01*
X79447D01*
G01X87972Y-26900D02*
X86731Y-27316D01*
X85802Y-28358D01*
X85181Y-29608D01*
X84717Y-31275D01*
X84562Y-33150D01*
X84717Y-35025D01*
X85181Y-36691D01*
X85802Y-37942D01*
X86731Y-38983D01*
X87972Y-39400D01*
X89211Y-38983D01*
X90142Y-37942D01*
X90762Y-36691D01*
X91227Y-35025D01*
X91381Y-33150D01*
X91227Y-31275D01*
X90762Y-29608D01*
X90142Y-28358D01*
X89211Y-27316D01*
X87972Y-26900D01*
G01X90806Y-104016D02*
Y-154016D01*
G01X114210Y-122766D02*
Y-110266D01*
X120101D01*
G01X117930Y-116307D02*
X114210D01*
G01X127696Y-110266D02*
X131415D01*
G01X129556D02*
Y-122766D01*
G01X127696D02*
X131415D01*
G01X138391D02*
Y-110266D01*
X145520Y-122766D01*
Y-110266D01*
G01X152496D02*
X156215D01*
G01X154356D02*
Y-122766D01*
G01X152496D02*
X156215D01*
G01X163500Y-121100D02*
X164741Y-122141D01*
X166135Y-122766D01*
X167376D01*
X168615Y-122141D01*
X169546Y-121100D01*
X170011Y-119641D01*
X169701Y-118183D01*
X168926Y-116933D01*
X167530Y-116099D01*
X165670Y-115682D01*
X164585Y-114849D01*
X164120Y-113391D01*
X164431Y-111932D01*
X165206Y-110891D01*
X166291Y-110266D01*
X167376D01*
X168461Y-110682D01*
X169391Y-111724D01*
G01X175900Y-122766D02*
Y-110266D01*
G01X182411D02*
Y-122766D01*
G01Y-116516D02*
X175900D01*
G01X194656Y-122766D02*
X188456D01*
Y-110266D01*
X194656D01*
G01X192176Y-116307D02*
X188456D01*
G01X200546Y-122766D02*
Y-110266D01*
X203645D01*
X204885Y-110891D01*
X205815Y-111724D01*
X206591Y-112974D01*
X207211Y-114433D01*
X207365Y-116516D01*
X207211Y-118599D01*
X206591Y-120057D01*
X205815Y-121308D01*
X204885Y-122141D01*
X203645Y-122766D01*
X200546D01*
G01X211706Y-126932D02*
X221006D01*
G01X225500Y-121100D02*
X226741Y-122141D01*
X228135Y-122766D01*
X229376D01*
X230615Y-122141D01*
X231546Y-121100D01*
X232011Y-119641D01*
X231701Y-118183D01*
X230926Y-116933D01*
X229530Y-116099D01*
X227670Y-115682D01*
X226585Y-114849D01*
X226120Y-113391D01*
X226431Y-111932D01*
X227206Y-110891D01*
X228291Y-110266D01*
X229376D01*
X230461Y-110682D01*
X231391Y-111724D01*
G01X239296Y-110266D02*
X243015D01*
G01X241156D02*
Y-122766D01*
G01X239296D02*
X243015D01*
G01X250610Y-110266D02*
X256501D01*
X250610Y-122766D01*
X256501D01*
G01X269056D02*
X262856D01*
Y-110266D01*
X269056D01*
G01X266576Y-116307D02*
X262856D01*
G01X101996Y-33150D02*
X157480D01*
G01X141732Y-35610D02*
X157480Y-33150D01*
X141732Y-30689D01*
Y-35610D01*
G01X179156Y-135266D02*
X177915Y-135682D01*
X176985Y-136724D01*
X176365Y-137974D01*
X175900Y-139641D01*
X175746Y-141516D01*
X175900Y-143391D01*
X176365Y-145057D01*
X176985Y-146308D01*
X177915Y-147349D01*
X179156Y-147766D01*
X180395Y-147349D01*
X181326Y-146308D01*
X181946Y-145057D01*
X182411Y-143391D01*
X182565Y-141516D01*
X182411Y-139641D01*
X181946Y-137974D01*
X181326Y-136724D01*
X180395Y-135682D01*
X179156Y-135266D01*
G01X191556Y-148182D02*
X191245Y-147974D01*
Y-147557D01*
X191556Y-147349D01*
X191866Y-147557D01*
Y-147974D01*
X191556Y-148182D01*
G01X205815Y-147766D02*
Y-135266D01*
X200080Y-144224D01*
X207831D01*
G01X157480Y147638D02*
Y-42992D01*
G01X167323Y0D02*
X210000D01*
G01X167323Y157480D02*
X210000D01*
G01X200157Y77722D02*
Y0D01*
G01X197697Y15748D02*
X200157Y0D01*
X202618Y15748D01*
X197697D01*
G01X195817Y87096D02*
Y99596D01*
X190082Y90638D01*
X197833D01*
G01X206357Y99596D02*
X205117Y99180D01*
X204187Y98138D01*
X203567Y96888D01*
X203102Y95221D01*
X202948Y93346D01*
X203102Y91471D01*
X203567Y89805D01*
X204187Y88554D01*
X205117Y87513D01*
X206357Y87096D01*
X207597Y87513D01*
X208528Y88554D01*
X209148Y89805D01*
X209613Y91471D01*
X209767Y93346D01*
X209613Y95221D01*
X209148Y96888D01*
X208528Y98138D01*
X207597Y99180D01*
X206357Y99596D01*
G01X200157Y108971D02*
Y157480D01*
G01X202618Y141732D02*
X200157Y157480D01*
X197697Y141732D01*
X202618D01*
G01X292306Y-104016D02*
Y-154016D01*
G01X321756Y-147766D02*
Y-135266D01*
X325476D01*
X326715Y-135891D01*
X327646Y-137349D01*
X327956Y-139016D01*
X327646Y-140682D01*
X326870Y-141933D01*
X325476Y-142558D01*
X321756D01*
G01X334156Y-135266D02*
Y-147766D01*
X340356D01*
G01X345780D02*
X349656Y-135266D01*
X353531Y-147766D01*
G01X352135Y-143391D02*
X347175D01*
G01X362056Y-135266D02*
Y-147766D01*
G01X358491Y-135266D02*
X365620D01*
G01X377556Y-147766D02*
X371356D01*
Y-135266D01*
X377556D01*
G01X375076Y-141307D02*
X371356D01*
G01X383446Y-147766D02*
Y-135266D01*
X386545D01*
X387785Y-135891D01*
X388715Y-136724D01*
X389491Y-137974D01*
X390111Y-139433D01*
X390265Y-141516D01*
X390111Y-143599D01*
X389491Y-145057D01*
X388715Y-146308D01*
X387785Y-147141D01*
X386545Y-147766D01*
X383446D01*
G01X321756Y-122766D02*
Y-110266D01*
X325476D01*
X326715Y-110891D01*
X327646Y-112349D01*
X327956Y-114016D01*
X327646Y-115682D01*
X326870Y-116933D01*
X325476Y-117558D01*
X321756D01*
G01X334156Y-110266D02*
Y-122766D01*
X340356D01*
G01X345780D02*
X349656Y-110266D01*
X353531Y-122766D01*
G01X352135Y-118391D02*
X347175D01*
G01X362056Y-110266D02*
Y-122766D01*
G01X358491Y-110266D02*
X365620D01*
G01X377556Y-122766D02*
X371356D01*
Y-110266D01*
X377556D01*
G01X375076Y-116307D02*
X371356D01*
G01X383446Y-122766D02*
Y-110266D01*
X386545D01*
X387785Y-110891D01*
X388715Y-111724D01*
X389491Y-112974D01*
X390111Y-114433D01*
X390265Y-116516D01*
X390111Y-118599D01*
X389491Y-120057D01*
X388715Y-121308D01*
X387785Y-122141D01*
X386545Y-122766D01*
X383446D01*
G01X419406Y-104016D02*
Y-154016D01*
G01X451956Y-147766D02*
Y-135266D01*
X450096Y-137766D01*
G01Y-147766D02*
X453815D01*
G01X460946Y-145266D02*
X461875Y-146724D01*
X463115Y-147557D01*
X464511Y-147766D01*
X465751Y-147557D01*
X466991Y-146516D01*
X467765Y-145266D01*
X467920Y-144016D01*
X467611Y-142558D01*
X466526Y-141516D01*
X465441Y-141099D01*
X464045D01*
G01X465441D02*
X466370Y-140474D01*
X467146Y-139433D01*
X467456Y-138183D01*
X467146Y-136932D01*
X466370Y-135891D01*
X464976Y-135266D01*
X463581Y-135474D01*
X462185Y-136307D01*
G01X445756Y-122766D02*
X444515Y-122557D01*
X443431Y-121724D01*
X442500Y-120474D01*
X441880Y-119016D01*
X441570Y-117349D01*
Y-115682D01*
X441880Y-114016D01*
X442500Y-112557D01*
X443431Y-111307D01*
X444515Y-110474D01*
X445756Y-110266D01*
X446995Y-110474D01*
X448080Y-111307D01*
X449011Y-112557D01*
X449631Y-114016D01*
X449941Y-115682D01*
Y-117349D01*
X449631Y-119016D01*
X449011Y-120474D01*
X448080Y-121724D01*
X446995Y-122557D01*
X445756Y-122766D01*
G01X446995Y-119432D02*
X448856Y-122766D01*
G01X458156Y-110266D02*
Y-122766D01*
G01X454591Y-110266D02*
X461720D01*
G01X470556Y-122766D02*
Y-117141D01*
X467456Y-110266D01*
G01X473656D02*
X470556Y-117141D01*
M02*
