G04 ================== begin FILE IDENTIFICATION RECORD ==================*
G04 Layout Name:  C:/Users/anana/Desktop/pt inch/P1_CONECTORI.brd*
G04 Film Name:    TOP*
G04 File Format:  Gerber RS274X*
G04 File Origin:  Cadence Allegro 17.2-S025*
G04 Origin Date:  Wed Dec 13 20:25:59 2023*
G04 *
G04 Layer:  ETCH/TOP*
G04 Layer:  PIN/TOP*
G04 Layer:  VIA CLASS/TOP*
G04 *
G04 Offset:    (0.0000 0.0000)*
G04 Mirror:    No*
G04 Mode:      Positive*
G04 Rotation:  0*
G04 FullContactRelief:  No*
G04 UndefLineWidth:     0.1000*
G04 ================== end FILE IDENTIFICATION RECORD ====================*
%FSLAX25Y25*MOIN*%
%IR0*IPPOS*OFA0.00000B0.00000*MIA0B0*SFA1.00000B1.00000*%
%ADD13C,.027559*%
%ADD15R,.036X.05*%
%ADD14R,.05X.036*%
%ADD17R,.07874X.051181*%
%ADD12C,.03937*%
%ADD16R,.051181X.051181*%
%ADD11R,.05X.05*%
%ADD10R,.12X.076*%
%ADD18C,.015748*%
%ADD19C,.019685*%
%ADD20C,.029528*%
G75*
%LPD*%
G75*
G54D10*
X19646Y26969D03*
Y50569D03*
X19882Y98740D03*
Y122340D03*
X137598Y32502D03*
Y56102D03*
G54D20*
G01X16443Y70616D02*
X8307Y62480D01*
Y30331D01*
X11669Y26969D01*
X19646D01*
G01D02*
X38817D01*
X38831Y26954D01*
X43307D01*
G01X24094Y70616D02*
X16443D01*
G01X19882Y98740D02*
Y92964D01*
X17770Y90852D01*
G01D02*
X16443Y89524D01*
Y70616D01*
G01X36575Y90852D02*
X17770D01*
G01X43307Y26954D02*
X50273D01*
X50287Y26969D01*
X54764D01*
G01D02*
X61705D01*
X61783Y27047D01*
X66260D01*
G01D02*
X74606D01*
X77717Y23937D01*
Y18307D01*
X85551Y10472D01*
X122047D01*
X125000Y13425D01*
Y27880D01*
X129622Y32502D01*
G01X132165Y116024D02*
Y107874D01*
X119921Y95630D01*
Y88228D01*
G01D02*
X124843D01*
X126063Y87008D01*
Y73437D01*
X128713Y70787D01*
G01X129622Y32502D02*
X137598D01*
G01X128713Y70787D02*
X126378D01*
X124449Y68858D01*
Y37676D01*
X129622Y32502D01*
G01X133189Y70787D02*
X128713D01*
G54D11*
X24094Y79016D03*
Y70616D03*
X43307Y26954D03*
X54764Y26969D03*
X50591Y50472D03*
Y58872D03*
X37205Y50472D03*
Y58872D03*
X43307Y35354D03*
X54764Y35369D03*
X36575Y90852D03*
X36654Y121024D03*
Y112624D03*
X36575Y99252D03*
X59370Y141024D03*
Y132624D03*
X39921Y141063D03*
Y132663D03*
X85709Y26285D03*
X66260Y27047D03*
X85709Y34685D03*
X65984Y50472D03*
Y58872D03*
X66260Y35447D03*
X78583Y141024D03*
Y132624D03*
X119921Y88228D03*
Y79828D03*
X107126Y88150D03*
Y79750D03*
X116181Y120576D03*
Y128976D03*
X143543Y70984D03*
Y79384D03*
X133189Y70787D03*
Y79187D03*
X141220Y128976D03*
X132820D03*
G54D12*
X19685Y137795D03*
X76260Y42283D03*
X120118Y112520D03*
X137795Y19685D03*
G54D13*
X58898Y44409D03*
X90118Y47835D03*
X84370Y92087D03*
Y74882D03*
X63504Y82205D03*
X84646Y112677D03*
X62717Y103386D03*
X78740D03*
X81929Y125394D03*
X113082Y71761D03*
X101299Y69488D03*
X113082Y94083D03*
X96811Y92756D03*
G54D14*
X51270Y92171D03*
X59370Y88071D03*
X57470Y74916D03*
X49370Y79016D03*
Y70816D03*
X59370Y96271D03*
X70680Y92210D03*
X78780Y88110D03*
X77509Y75073D03*
X69409Y79173D03*
Y70973D03*
X89882Y79173D03*
Y70973D03*
X78780Y96310D03*
X97982Y75073D03*
G54D15*
X56018Y108435D03*
X60118Y116535D03*
X51918D03*
X88898Y120827D03*
X88931Y97333D03*
X84831Y105433D03*
X73549Y120817D03*
X69449Y112717D03*
X77649D03*
X101383Y61289D03*
X97283Y53189D03*
X105483D03*
X97098Y120827D03*
X108982Y109320D03*
X104882Y101220D03*
X113082D03*
X93031Y105433D03*
X92998Y128927D03*
G54D16*
X106890Y20551D03*
X115945D03*
X141220Y116024D03*
X132165D03*
G54D17*
X111417Y42795D03*
X136693Y93780D03*
G54D18*
G01X24094Y79016D02*
X49370D01*
G01X37205Y58872D02*
Y64449D01*
X43572Y70816D01*
X49370D01*
G01X50591Y58872D02*
X54378D01*
X66321Y70816D01*
X69409Y70973D01*
G01X49370Y79016D02*
X53370D01*
X57470Y74916D01*
G01D02*
X65751D01*
X69851Y79016D01*
X69409Y79173D01*
G01X69449Y112717D02*
X66024D01*
X62205Y116535D01*
X60118D01*
G01X56018Y108435D02*
Y104648D01*
X51270Y99900D01*
Y92171D01*
G01X60118Y116535D02*
X56018Y112435D01*
Y108435D01*
G01X59370Y132624D02*
X51918Y125172D01*
Y116535D01*
G01X59370Y96271D02*
X59409Y96310D01*
Y101811D01*
X60984Y103386D01*
X62717D01*
G01X36575Y99252D02*
Y103039D01*
X36654Y103118D01*
Y112624D01*
G01Y121024D02*
Y124811D01*
X39921Y128079D01*
Y132663D01*
G01X115945Y20551D02*
X110039Y14646D01*
X89134D01*
X85709Y18071D01*
Y26285D01*
G01X65984Y58872D02*
X72140D01*
X84123Y70855D01*
X89882Y70973D01*
G01X97283Y53189D02*
Y49402D01*
X95717Y47835D01*
X90118D01*
G01X77509Y75073D02*
X78685Y74882D01*
X84370D01*
G01X69409Y79173D02*
X85228Y79016D01*
X85268Y79055D01*
X89882Y79173D01*
G01X78780Y88110D02*
X102748D01*
X102827Y88189D01*
X107126Y88150D01*
G01X69449Y112717D02*
Y113417D01*
G01X77649Y112717D02*
X81529D01*
X81569Y112677D01*
X84646D01*
G01X78740Y103386D02*
Y99437D01*
X78780Y99398D01*
Y96310D01*
G01D02*
X82567D01*
X84370Y94507D01*
Y92087D01*
G01X88898Y120827D02*
X85810D01*
X85800Y120817D01*
X73549D01*
G01D02*
Y104759D01*
X70680Y101890D01*
Y92210D01*
G01X88931Y97333D02*
X95236D01*
X96811Y95758D01*
Y92756D01*
G01X78583Y132624D02*
Y125433D01*
X78622Y125394D01*
X81929D01*
G01X107126Y88150D02*
X111561Y88189D01*
X119921Y79828D01*
G01X97982Y75073D02*
Y70837D01*
X99331Y69488D01*
X101299D01*
G01X104882Y101220D02*
X101794D01*
X97582Y105433D01*
X93031D01*
G01D02*
Y109220D01*
X92998Y109254D01*
Y128927D01*
G01X116181Y128976D02*
X132820D01*
G01X133189Y79187D02*
X139559D01*
X139756Y79384D01*
X143543D01*
G01X141220Y116024D02*
Y128976D01*
G54D19*
G01X37205Y50472D02*
X33220D01*
X33124Y50569D01*
X19646D01*
G01X39921Y141063D02*
X33320D01*
X19882Y127624D01*
Y122340D01*
G01X50591Y50472D02*
X37205D01*
G01X50591D02*
X65984D01*
G01X54764Y35369D02*
Y42960D01*
X56213Y44409D01*
X58898D01*
G01X54764Y35369D02*
X50780D01*
X50765Y35354D01*
X43307D01*
G01X54764Y35369D02*
X62197D01*
X62276Y35447D01*
X66260D01*
G01X59370Y88071D02*
Y83654D01*
X60820Y82205D01*
X63504D01*
G01X59370Y141024D02*
X55386D01*
X55346Y141063D01*
X39921D01*
G01X78583Y141024D02*
X59370D01*
G01X65984Y50472D02*
X75709D01*
X86525Y61289D01*
X101383D01*
G01X66260Y35447D02*
X80962D01*
X81724Y34685D01*
X85709D01*
G01X76260Y42283D02*
X67652D01*
X66260Y40891D01*
Y35447D01*
G01X97098Y120827D02*
Y124811D01*
X97160Y124873D01*
Y134927D01*
X91063Y141024D01*
X78583D01*
G01X106890Y20551D02*
X111417Y25079D01*
Y42795D01*
G01X113082Y71761D02*
Y56778D01*
G01X105483Y53189D02*
X109493D01*
X113082Y56778D01*
G01X111417Y42795D02*
Y49083D01*
X113082Y50748D01*
Y56778D01*
G01X107126Y79750D02*
Y73937D01*
X109302Y71761D01*
X113082D01*
G01X108982Y109320D02*
Y114522D01*
X102677Y120827D01*
X97098D01*
G01X113082Y101220D02*
Y105780D01*
X113144Y105842D01*
Y109640D01*
X116024Y112520D01*
X120118D01*
G01X113082Y101220D02*
Y94083D01*
G01X120118Y112520D02*
X121772D01*
X123740Y114488D01*
Y118608D01*
X121772Y120576D01*
X116181D01*
G01X137598Y56102D02*
Y61387D01*
X139991Y63780D01*
X141457D01*
X143543Y65866D01*
Y70984D01*
G01X136693Y93780D02*
X147717D01*
X149685Y91811D01*
Y72953D01*
X147717Y70984D01*
X143543D01*
M02*
